<?xml version="1.0" encoding="UTF-8"?>
<svg viewBox="0 0 291.48798 73.142677" xmlns="http://www.w3.org/2000/svg">
 <g transform="translate(-288.54 -421.51)">
  <path d="m578.81393,494.47484-289.05949-.01193-.21007-.02106-.1954-.06043-.17665-.09564-.15377-.12679-.12673-.15374-.09568-.17669-.06041-.19543-.02103-.21006 8.73455-8.83778-8.73382-8.83852 8.73452-8.83779-8.7338-8.83851 8.73453-8.83779-8.73376-8.83845 8.73449-8.83786-8.73376-8.83845 .02102-.2101 .06044-.19539 .09568-.17663 .12674-.15381 .15379-.12674 .17662-.09568 .19543-.06039 .21009-.02102 289.05948.01192 .21007.02106 .19542.06042 .17663.09565 .15377.12678 .12676.15377 .09565.17665 .0604.19543 .02103.21007-8.73454,8.83779 8.73382,8.8385-8.73454,8.83779 8.73381,8.83851-8.73454,8.83779 8.73381,8.83851-8.73454,8.83779 8.73382,8.83851-.02107.21007-.06041.1954-.09566.17666-.12677.15377-.15378.12676-.17666.09562-.19541.06042-.21008.02104z" fill="#f2f2f2" fill-opacity=".73927" opacity=".5342" stroke="#000" stroke-width=".346"/>
 </g>
</svg>
